<svg width="100" height="39" viewBox="0 0 100 39" fill="none" xmlns="http://www.w3.org/2000/svg">
<path d="M85.0569 18.7281C84.6723 18.7281 84.38 18.576 84.1799 18.2718C84.0569 18.0571 83.9338 17.735 83.8107 17.3056C83.6876 16.8761 83.5799 16.4288 83.4876 15.9636C83.3953 15.4984 83.3184 15.1226 83.2568 14.8364C82.826 15.4805 82.4414 16.1246 82.1029 16.7688C81.7798 17.4129 81.5644 17.9139 81.4567 18.2718C81.4259 18.3791 81.3182 18.4686 81.1336 18.5402C80.9644 18.6117 80.7951 18.6475 80.6259 18.6475C80.3797 18.6475 80.2874 18.5581 80.349 18.3791C80.8259 17.1445 81.2798 15.9547 81.7106 14.8095C82.1414 13.6644 82.5952 12.5103 83.0722 11.3472C83.5645 10.1842 84.1184 8.97645 84.7338 7.72395C85.1646 6.81141 85.68 5.93466 86.2801 5.09369C86.8955 4.23483 87.5494 3.53702 88.2417 3.00023C88.9341 2.44555 89.6341 2.16821 90.3418 2.16821C90.5726 2.16821 90.788 2.23978 90.988 2.38292C91.188 2.52607 91.2881 2.74973 91.2881 3.05391V3.83225C91.2881 3.90382 91.2419 3.93961 91.1496 3.93961C91.1034 3.93961 91.0803 3.92171 91.0803 3.88592C91.0803 3.59964 90.9727 3.41176 90.7573 3.3223C90.5419 3.21494 90.3341 3.16127 90.1341 3.16127C89.5956 3.16127 89.0495 3.28652 88.4956 3.53702C87.8802 3.8233 87.3647 4.25273 86.9493 4.8253C86.5339 5.39787 86.1493 6.00623 85.7954 6.65037C85.3339 7.47344 84.88 8.43966 84.4338 9.54901C83.9876 10.6405 83.5722 11.7409 83.1876 12.8503C82.8183 13.9596 82.4875 14.9616 82.1952 15.8562C82.3645 15.6057 82.5337 15.3552 82.7029 15.1047C82.8722 14.8542 83.0337 14.6216 83.1876 14.4069C83.1876 14.3711 83.1799 14.3354 83.1645 14.2996C83.1645 14.2638 83.1645 14.228 83.1645 14.1922C83.1645 14.067 83.1876 13.9596 83.2337 13.8701C83.2799 13.7807 83.3414 13.6733 83.4184 13.5481C83.5261 13.3691 83.6261 13.2349 83.7184 13.1455C83.8107 13.0381 83.9107 12.9039 84.0184 12.7429L84.0876 13.1992C84.7646 12.394 85.3569 11.8125 85.8647 11.4546C86.2185 11.2041 86.5647 11.0789 86.9032 11.0789C87.2417 11.0789 87.4109 11.2309 87.4109 11.5351C87.4109 11.7856 87.3032 12.0987 87.0878 12.4745C87.0109 12.5997 86.9647 12.6892 86.9493 12.7429C86.934 12.7966 86.9032 12.8502 86.857 12.9039C86.8416 12.9218 86.8109 12.9218 86.7647 12.9039C86.7186 12.886 86.6955 12.8592 86.6955 12.8234C86.6955 12.6087 86.6339 12.4745 86.5109 12.4208C86.3878 12.3492 86.2493 12.3135 86.0954 12.3135C85.8031 12.3135 85.4877 12.4387 85.1492 12.6892C84.8261 12.9218 84.4953 13.2439 84.1569 13.6554C84.2338 14.1027 84.3184 14.5948 84.4107 15.1316C84.5184 15.6505 84.6338 16.1336 84.7569 16.5809C84.88 17.0282 84.9954 17.3592 85.1031 17.574C85.18 17.7171 85.2877 17.8155 85.4262 17.8692C85.5646 17.905 85.68 17.9229 85.7723 17.9229C85.9877 17.9229 86.2339 17.7976 86.5109 17.5471C86.8032 17.2787 87.0955 16.9656 87.3878 16.6078C87.6955 16.232 87.9725 15.8652 88.2186 15.5073C88.4802 15.1495 88.6802 14.8632 88.8187 14.6485C88.8802 14.7379 88.8956 14.8274 88.8648 14.9169C88.8494 15.0242 88.8033 15.1405 88.7264 15.2658C88.6648 15.3731 88.6033 15.4715 88.5417 15.561C88.234 16.0083 87.9032 16.4646 87.5494 16.9298C87.1955 17.3771 86.8186 17.7797 86.4185 18.1376C86.2493 18.2986 86.0416 18.4418 85.7954 18.567C85.5493 18.6744 85.3031 18.7281 85.0569 18.7281Z" fill="white"/>
<path d="M72.841 18.6742C72.6872 18.6742 72.5564 18.6385 72.4487 18.5669C72.341 18.4953 72.2872 18.3611 72.2872 18.1643C72.2872 17.9138 72.341 17.6275 72.4487 17.3054C72.5564 16.9834 72.6795 16.6702 72.818 16.3661C72.9564 16.044 73.0795 15.7845 73.1872 15.5877C72.6487 16.2498 72.0871 16.876 71.5024 17.4665C71.2101 17.7528 70.887 18.0212 70.5331 18.2717C70.1793 18.5222 69.8023 18.6474 69.4023 18.6474C69.2484 18.6474 69.1407 18.5937 69.0792 18.4864C69.0177 18.3611 68.9869 18.218 68.9869 18.0569C68.9869 17.9675 68.9946 17.9048 69.01 17.8691C69.0869 17.1712 69.2792 16.4466 69.5869 15.6951C69.8946 14.9436 70.2716 14.2368 70.7178 13.5748C71.1639 12.9127 71.6178 12.376 72.0794 11.9644C72.6026 11.4992 73.1795 11.2666 73.8103 11.2666H76.4643C76.5412 11.2666 76.5797 11.3024 76.5797 11.374C76.5797 11.5171 76.5105 11.5887 76.372 11.5887C76.2182 11.5887 76.0643 11.705 75.9104 11.9376C75.7566 12.1523 75.6412 12.3312 75.5643 12.4744C75.4566 12.6712 75.2873 13.0022 75.0565 13.4674C74.8258 13.9326 74.5873 14.4426 74.3411 14.9973C74.1103 15.534 73.9103 16.035 73.7411 16.5003C73.5718 16.9655 73.4872 17.3054 73.4872 17.5201C73.4872 17.7706 73.5949 17.8959 73.8103 17.8959C74.0411 17.8959 74.3027 17.7706 74.595 17.5201C74.8873 17.2696 75.1796 16.9655 75.472 16.6076C75.7797 16.2319 76.0566 15.8651 76.3028 15.5072C76.5643 15.1315 76.772 14.8362 76.9259 14.6215C77.0182 14.7289 77.0105 14.881 76.9028 15.0778C76.8105 15.2567 76.7259 15.3999 76.6489 15.5072C76.3412 15.9724 75.9874 16.4555 75.5873 16.9565C75.1873 17.4396 74.7488 17.8512 74.2719 18.1911C73.8103 18.5132 73.3334 18.6742 72.841 18.6742ZM70.3485 17.7349C70.5331 17.7349 70.787 17.5828 71.1101 17.2786C71.4486 16.9565 71.8102 16.5629 72.1948 16.0977C72.5795 15.6146 72.941 15.1136 73.2795 14.5947C73.618 14.0579 73.8949 13.5748 74.1103 13.1454C74.3411 12.698 74.4565 12.3581 74.4565 12.1255C74.4565 11.9286 74.4027 11.7944 74.295 11.7229C74.2026 11.6513 74.0796 11.6155 73.9257 11.6155C73.6795 11.6155 73.4103 11.7229 73.118 11.9376C72.841 12.1344 72.6179 12.3312 72.4487 12.528C72.2641 12.7249 72.041 13.038 71.7794 13.4674C71.5332 13.879 71.287 14.3352 71.0409 14.8362C70.7947 15.3372 70.587 15.8203 70.4177 16.2855C70.2485 16.7508 70.1639 17.1265 70.1639 17.4128C70.1639 17.6275 70.2254 17.7349 70.3485 17.7349Z" fill="white"/>
<path d="M56.8219 19.5065C56.2834 19.5065 55.7142 19.4081 55.1141 19.2112C54.5295 19.0323 54.0064 18.7281 53.5448 18.2987C53.0986 17.8693 52.7986 17.2967 52.6447 16.581C52.6294 16.4915 52.614 16.3931 52.5986 16.2858C52.5986 16.1784 52.5986 16.071 52.5986 15.9637C52.5986 15.409 52.7063 14.8722 52.9217 14.3533C53.1371 13.8344 53.3986 13.4408 53.7063 13.1724H53.7294C53.7602 13.1724 53.7987 13.2171 53.8448 13.3066C53.9064 13.3782 53.9064 13.4318 53.8448 13.4676C53.691 13.6466 53.5756 13.8523 53.4986 14.0849C53.4371 14.2996 53.4063 14.5323 53.4063 14.7828C53.4063 15.1227 53.4525 15.4716 53.5448 15.8295C53.6525 16.1694 53.7833 16.4647 53.9371 16.7152C54.3218 17.3414 54.8526 17.8424 55.5295 18.2182C56.2219 18.576 56.8988 18.755 57.5604 18.755C58.4682 18.755 59.1682 18.4418 59.6605 17.8156C60.1683 17.1893 60.4221 16.42 60.4221 15.5074C60.4221 14.9527 60.3298 14.3981 60.1452 13.8434C59.899 13.074 59.5682 12.3225 59.1528 11.5889C58.7528 10.8374 58.3835 10.1038 58.0451 9.38806C57.7527 8.74392 57.6066 8.09083 57.6066 7.4288C57.6066 6.73097 57.7912 6.05999 58.1604 5.41585C58.5297 4.84327 59.0143 4.38701 59.6144 4.04704C60.2298 3.68919 60.8529 3.51025 61.4837 3.51025C61.9145 3.51025 62.3299 3.59972 62.7299 3.77865C63.13 3.95758 63.4915 4.25281 63.8146 4.66435C63.9069 4.82538 63.9531 5.03115 63.9531 5.28165C63.9531 5.6395 63.8916 5.91685 63.7685 6.11367C63.63 6.34627 63.4761 6.65046 63.3069 7.02621C63.1377 7.40196 63.0377 7.6614 63.0069 7.80454C62.9761 7.82244 62.8992 7.85822 62.7761 7.9119C62.6684 7.94769 62.5992 7.93874 62.5684 7.88506C62.6299 7.74192 62.7146 7.48247 62.8223 7.10672C62.93 6.73097 62.9838 6.391 62.9838 6.08683C62.9838 5.89 62.9761 5.67529 62.9607 5.44269C62.9607 5.19219 62.8607 4.97747 62.6607 4.79854C62.4761 4.60172 62.2376 4.43174 61.9453 4.28859C61.653 4.14545 61.2991 4.07388 60.8837 4.07388C60.0375 4.07388 59.3913 4.36017 58.9451 4.93274C58.4989 5.50531 58.2758 6.13156 58.2758 6.81149C58.2758 7.15145 58.3374 7.49142 58.4605 7.83139C58.6913 8.47553 59.0143 9.08388 59.4298 9.65645C59.8452 10.229 60.2529 10.8195 60.6529 11.4278C61.0683 12.0183 61.3914 12.6624 61.6222 13.3603C61.776 13.8255 61.853 14.2996 61.853 14.7828C61.853 15.4806 61.6991 16.1158 61.3914 16.6883C61.0991 17.2609 60.6991 17.7619 60.1913 18.1913C59.699 18.6029 59.1605 18.925 58.5759 19.1576C57.9912 19.3902 57.4066 19.5065 56.8219 19.5065Z" fill="white"/>
<path d="M66.3341 18.7551C66.1033 18.7551 65.8956 18.7014 65.711 18.594C65.5418 18.4867 65.4571 18.2899 65.4571 18.0036C65.4571 17.8425 65.4879 17.6636 65.5495 17.4668C65.6879 17.0553 65.8726 16.5543 66.1033 15.9638C66.3495 15.3733 66.5957 14.8008 66.8418 14.2461C67.088 13.6735 67.2803 13.2083 67.4188 12.8504C67.5111 12.6357 67.5573 12.4836 67.5573 12.3942C67.5573 12.2331 67.4803 12.1974 67.3265 12.2868C67.1726 12.3763 67.0034 12.5015 66.8188 12.6626C66.6341 12.8236 66.4957 12.9489 66.4034 13.0383C66.0033 13.4678 65.5802 13.9777 65.1341 14.5682C64.7033 15.1407 64.3032 15.7491 63.934 16.3932C63.5801 17.0195 63.3032 17.6457 63.1032 18.272C63.0878 18.3793 62.9878 18.4688 62.8031 18.5404C62.6185 18.6119 62.4493 18.6477 62.2954 18.6477C62.0493 18.6477 61.9569 18.5583 62.0185 18.3793C62.3724 17.4489 62.7339 16.4201 63.1032 15.2928C63.4878 14.1656 63.9186 13.0115 64.3955 11.8306C64.7494 10.9359 65.1417 10.0144 65.5725 9.06611C66.0187 8.11779 66.5111 7.21419 67.0495 6.35533C67.588 5.47858 68.1804 4.7092 68.8266 4.04716C69.3958 3.47459 70.019 3.00937 70.6959 2.65152C71.3883 2.27577 72.1344 2.08789 72.9345 2.08789C73.2884 2.08789 73.5961 2.17736 73.8576 2.35629C74.1192 2.51732 74.2653 2.81255 74.2961 3.24198V3.48354C74.2961 3.73404 74.273 3.98454 74.2269 4.23504C74.2115 4.30661 74.1499 4.34239 74.0422 4.34239C73.9961 4.34239 73.9807 4.33344 73.9961 4.31555C74.0576 3.85034 73.9499 3.51932 73.673 3.3225C73.4114 3.12568 73.073 3.02727 72.6575 3.02727C71.9037 3.02727 71.2113 3.1883 70.5805 3.51037C69.9497 3.83244 69.3651 4.26187 68.8266 4.79866C67.9958 5.63962 67.2726 6.7132 66.6572 8.01938C66.0418 9.32556 65.511 10.6586 65.0648 12.0184C64.8494 12.6805 64.634 13.3425 64.4186 14.0045C64.2186 14.6666 64.0263 15.2839 63.8417 15.8564C64.534 14.7829 65.1956 13.8614 65.8264 13.092C66.4726 12.3226 67.0342 11.7769 67.5111 11.4548C67.8958 11.2043 68.2419 11.0791 68.5496 11.0791C68.842 11.0791 68.9881 11.2222 68.9881 11.5085C68.9881 11.759 68.8804 12.081 68.665 12.4747C68.5573 12.6715 68.3881 13.0025 68.1573 13.4677C67.9419 13.933 67.7111 14.4429 67.465 14.9976C67.2342 15.5344 67.0342 16.0354 66.8649 16.5006C66.6957 16.9658 66.6111 17.3058 66.6111 17.5205C66.6111 17.8068 66.7188 17.9499 66.9342 17.9499C67.0572 17.9499 67.1957 17.9052 67.3496 17.8157C67.5188 17.7262 67.6419 17.6457 67.7188 17.5742C68.1342 17.2163 68.5419 16.7779 68.942 16.259C69.342 15.7401 69.6805 15.2839 69.9574 14.8902C69.9728 14.8723 69.9805 14.8992 69.9805 14.9707C69.9805 15.0423 69.9651 15.1497 69.9343 15.2928C69.9189 15.4181 69.8728 15.5254 69.7959 15.6149C69.6266 15.8833 69.4497 16.1427 69.2651 16.3932C69.0958 16.6258 68.9266 16.8584 68.7573 17.0911C68.465 17.4847 68.1111 17.8604 67.6957 18.2183C67.2957 18.5762 66.8418 18.7551 66.3341 18.7551Z" fill="white"/>
<path d="M81.2863 8.34116C81.0709 8.34116 80.9171 8.26065 80.8248 8.09962C80.7632 8.01015 80.7324 7.89384 80.7324 7.7507C80.7324 7.46441 80.8478 7.23181 81.0786 7.05288C81.2479 6.94552 81.4017 6.89185 81.5402 6.89185C81.771 6.89185 81.9325 6.97237 82.0248 7.1334C82.0864 7.22287 82.1171 7.33917 82.1171 7.48231C82.1171 7.7686 81.9941 8.0012 81.7479 8.18013C81.6094 8.28749 81.4556 8.34116 81.2863 8.34116ZM77.2707 18.6743C77.1168 18.6743 76.9861 18.6385 76.8784 18.5669C76.7861 18.4954 76.7399 18.3612 76.7399 18.1643C76.7399 17.9138 76.7937 17.6186 76.9014 17.2787C77.0245 16.9387 77.1553 16.5987 77.2938 16.2588C77.4476 15.9188 77.563 15.6415 77.64 15.4267C77.7477 15.1762 77.8784 14.8542 78.0323 14.4605C78.2015 14.049 78.3554 13.6643 78.4938 13.3064C78.6477 12.9307 78.7554 12.6712 78.8169 12.5281C78.6015 12.7965 78.34 13.1365 78.0323 13.548C77.74 13.9416 77.463 14.3263 77.2015 14.7021C76.9399 15.0778 76.7399 15.3731 76.6014 15.5878C76.5553 15.6593 76.5168 15.6951 76.486 15.6951C76.4553 15.6951 76.4399 15.6504 76.4399 15.5609C76.4399 15.4178 76.4783 15.2836 76.5553 15.1583C76.8476 14.7289 77.1707 14.2458 77.5246 13.709C77.8938 13.1722 78.2246 12.6802 78.5169 12.2329C78.8092 11.7677 78.9939 11.4635 79.0708 11.3203C79.24 11.2845 79.4862 11.2309 79.8093 11.1593C80.1478 11.0877 80.3786 10.9893 80.5017 10.8641C80.5478 10.8104 80.594 10.7835 80.6401 10.7835C80.6709 10.7835 80.6863 10.8193 80.6863 10.8909C80.7017 10.9446 80.6863 11.0072 80.6401 11.0788C80.5478 11.204 80.3863 11.5082 80.1555 11.9913C79.9247 12.4744 79.6785 13.0112 79.417 13.6017C79.1708 14.1742 78.94 14.6931 78.7246 15.1583C78.5092 15.6415 78.3246 16.1067 78.1708 16.554C78.0169 17.0013 77.94 17.3234 77.94 17.5202C77.94 17.7707 78.0477 17.896 78.2631 17.896C78.4631 17.896 78.7169 17.7528 79.0246 17.4665C79.3477 17.1802 79.6708 16.8403 79.9939 16.4466C80.317 16.0351 80.6017 15.6593 80.8478 15.3194C80.9248 15.212 81.0171 15.0868 81.1248 14.9436C81.2479 14.7826 81.3248 14.6842 81.3556 14.6484C81.3863 14.6842 81.4017 14.7468 81.4017 14.8363C81.3863 14.9615 81.3479 15.0868 81.2863 15.212C81.2248 15.3194 81.1632 15.4178 81.1017 15.5073C80.7786 15.9725 80.4247 16.4556 80.0401 16.9566C79.6555 17.4397 79.2324 17.8512 78.7708 18.1912C78.3092 18.5133 77.8092 18.6743 77.2707 18.6743Z" fill="white"/>
<path d="M91.8238 18.7551C91.5931 18.7551 91.3854 18.7014 91.2007 18.594C91.0315 18.4867 90.9469 18.2899 90.9469 18.0036C90.9469 17.8425 90.9776 17.6636 91.0392 17.4668C91.1777 17.0553 91.3623 16.5543 91.5931 15.9638C91.8392 15.3733 92.0854 14.8008 92.3316 14.2461C92.5777 13.6735 92.7701 13.2083 92.9085 12.8504C93.0008 12.6357 93.047 12.4836 93.047 12.3942C93.047 12.2331 92.9701 12.1974 92.8162 12.2868C92.6624 12.3763 92.4931 12.5015 92.3085 12.6626C92.1239 12.8236 91.9854 12.9489 91.8931 13.0383C91.4931 13.4678 91.07 13.9777 90.6238 14.5682C90.193 15.1407 89.793 15.7491 89.4237 16.3932C89.0698 17.0195 88.7929 17.6457 88.5929 18.272C88.5775 18.3793 88.4775 18.4688 88.2929 18.5404C88.1082 18.6119 87.939 18.6477 87.7851 18.6477C87.539 18.6477 87.4467 18.5583 87.5082 18.3793C87.8621 17.4489 88.2236 16.4201 88.5929 15.2928C88.9775 14.1656 89.4083 13.0115 89.8853 11.8306C90.2391 10.9359 90.6315 10.0144 91.0623 9.06611C91.5084 8.11779 92.0008 7.21419 92.5393 6.35533C93.0778 5.47858 93.6701 4.7092 94.3163 4.04716C94.8856 3.47459 95.5087 3.00937 96.1856 2.65152C96.878 2.27577 97.6242 2.08789 98.4242 2.08789C98.7781 2.08789 99.0858 2.17736 99.3474 2.35629C99.6089 2.51732 99.7551 2.81255 99.7858 3.24198V3.48354C99.7858 3.73404 99.7628 3.98454 99.7166 4.23504C99.7012 4.30661 99.6397 4.34239 99.532 4.34239C99.4858 4.34239 99.4704 4.33344 99.4858 4.31555C99.5474 3.85034 99.4397 3.51932 99.1627 3.3225C98.9012 3.12568 98.5627 3.02727 98.1473 3.02727C97.3934 3.02727 96.7011 3.1883 96.0702 3.51037C95.4394 3.83244 94.8548 4.26187 94.3163 4.79866C93.4855 5.63962 92.7624 6.7132 92.1469 8.01938C91.5315 9.32556 91.0007 10.6586 90.5545 12.0184C90.3391 12.6805 90.1237 13.3425 89.9084 14.0045C89.7083 14.6666 89.516 15.2839 89.3314 15.8564C90.0237 14.7829 90.6853 13.8614 91.3161 13.092C91.9623 12.3226 92.5239 11.7769 93.0008 11.4548C93.3855 11.2043 93.7316 11.0791 94.0394 11.0791C94.3317 11.0791 94.4778 11.2222 94.4778 11.5085C94.4778 11.759 94.3701 12.081 94.1548 12.4747C94.0471 12.6715 93.8778 13.0025 93.647 13.4677C93.4316 13.933 93.2008 14.4429 92.9547 14.9976C92.7239 15.5344 92.5239 16.0354 92.3546 16.5006C92.1854 16.9658 92.1008 17.3058 92.1008 17.5205C92.1008 17.8068 92.2085 17.9499 92.4239 17.9499C92.547 17.9499 92.6854 17.9052 92.8393 17.8157C93.0085 17.7262 93.1316 17.6457 93.2085 17.5742C93.624 17.2163 94.0317 16.7779 94.4317 16.259C94.8317 15.7401 95.1702 15.2839 95.4471 14.8902C95.4625 14.8723 95.4702 14.8992 95.4702 14.9707C95.4702 15.0423 95.4548 15.1497 95.4241 15.2928C95.4087 15.4181 95.3625 15.5254 95.2856 15.6149C95.1163 15.8833 94.9394 16.1427 94.7548 16.3932C94.5855 16.6258 94.4163 16.8584 94.2471 17.0911C93.9547 17.4847 93.6009 17.8604 93.1855 18.2183C92.7854 18.5762 92.3316 18.7551 91.8238 18.7551Z" fill="white"/>
<path d="M39.1671 31.1107C39.1367 31.1107 39.0835 31.0963 39.0075 31.0675C38.9315 31.0531 38.8934 31.0243 38.8934 30.9811C38.8934 30.9667 38.9011 30.9523 38.9163 30.9379C38.9315 30.9234 38.9391 30.9163 38.9391 30.9163C39.0455 30.8874 39.0911 30.873 39.0759 30.873C39.0759 30.8874 39.1291 30.8802 39.2355 30.8514C39.4939 30.765 39.7143 30.6426 39.8967 30.4841C40.0943 30.3113 40.2615 30.1097 40.3983 29.8792C41.1128 28.7557 41.7968 27.6178 42.4505 26.4656C43.1041 25.2989 43.7578 24.1394 44.4114 22.9871C44.5938 22.6846 44.7686 22.3749 44.9358 22.0581C45.103 21.7412 45.2702 21.4243 45.4375 21.1074C45.5135 20.9346 45.5895 20.7617 45.6655 20.5889C45.7567 20.4161 45.8555 20.2504 45.9619 20.092C46.0835 19.8903 46.2735 19.7175 46.5319 19.5735C46.8055 19.415 47.064 19.2998 47.3072 19.2278H46.7599C46.4559 19.2278 46.0379 19.2494 45.5059 19.2926C44.989 19.3214 44.4418 19.379 43.8642 19.4654C43.2865 19.5518 42.7697 19.6815 42.3137 19.8543C41.8728 20.0272 41.5688 20.2576 41.4016 20.5457C41.2496 20.8049 41.1736 21.057 41.1736 21.3019C41.1736 21.5899 41.242 21.7844 41.3788 21.8852C41.5156 21.986 41.584 22.0509 41.584 22.0797C41.584 22.1085 41.5612 22.1373 41.5156 22.1661C41.47 22.1949 41.432 22.2093 41.4016 22.2093C41.3104 22.2093 41.1964 22.1229 41.0596 21.95C40.9228 21.7772 40.7936 21.5899 40.672 21.3883C40.5656 21.1722 40.4971 21.0282 40.4667 20.9562C40.4211 20.7977 40.3983 20.6393 40.3983 20.4809C40.3983 20.092 40.5352 19.7967 40.8088 19.5951C41.0976 19.379 41.4472 19.2278 41.8576 19.1413C42.2681 19.0549 42.6785 19.0045 43.0889 18.9901C43.5145 18.9613 43.8642 18.9469 44.1378 18.9469C44.8978 18.9469 45.6579 18.9325 46.4179 18.9037C47.178 18.8605 47.9304 18.8389 48.6753 18.8389C49.3897 18.8389 50.0889 18.8893 50.773 18.9901C51.4722 19.0765 52.1031 19.2566 52.6655 19.5302C53.2279 19.8039 53.6764 20.1928 54.0108 20.6969C54.3604 21.201 54.5352 21.8636 54.5352 22.6846C54.5352 23.4336 54.3832 24.2042 54.0792 24.9964C53.7904 25.7742 53.4255 26.4728 52.9847 27.0921C51.1302 29.728 48.5308 31.0459 45.1866 31.0459C44.6698 31.0459 44.1378 30.9955 43.5905 30.8946C43.0585 30.7938 42.5569 30.6282 42.0856 30.3977C41.9792 30.3401 41.8652 30.2969 41.7436 30.2681C41.6372 30.2249 41.5232 30.2033 41.4016 30.2033C41.1432 30.2033 40.8848 30.2825 40.6264 30.4409C40.3679 30.585 40.1171 30.729 39.8739 30.873C39.6307 31.0315 39.3951 31.1107 39.1671 31.1107ZM44.913 30.7434C46.0531 30.7434 47.1172 30.5346 48.1052 30.1169C49.0933 29.6992 49.9597 29.1158 50.7046 28.3668C51.4494 27.6034 52.0347 26.732 52.4603 25.7526C52.6579 25.2917 52.8175 24.8091 52.9391 24.305C53.0759 23.8009 53.1443 23.304 53.1443 22.8142C53.1443 21.6908 52.7795 20.8266 52.0499 20.2216C51.3354 19.6023 50.393 19.2926 49.2225 19.2926C48.9337 19.2926 48.6297 19.3214 48.3104 19.379C48.0064 19.4366 47.7556 19.5734 47.558 19.7895C47.3604 20.02 47.1704 20.272 46.9879 20.5457C46.8207 20.8194 46.6535 21.0858 46.4863 21.3451C46.1367 21.9212 45.8023 22.519 45.4831 23.1383C45.179 23.7433 44.8674 24.341 44.5482 24.9316C44.0466 25.839 43.5525 26.7536 43.0661 27.6755C42.9597 27.8771 42.8457 28.086 42.7241 28.302C42.6177 28.5037 42.5113 28.7053 42.4049 28.907C42.3745 28.979 42.3441 29.0582 42.3137 29.1446C42.2833 29.2166 42.2681 29.3031 42.2681 29.4039C42.2681 29.5911 42.3289 29.7496 42.4505 29.8792C42.5721 30.0088 42.7013 30.1313 42.8381 30.2465C43.1269 30.4481 43.4613 30.585 43.8414 30.657C44.2214 30.7146 44.5786 30.7434 44.913 30.7434Z" fill="#FF6300"/>
<path d="M69.7079 22.4467C69.4951 22.4467 69.343 22.3819 69.2518 22.2523C69.191 22.1803 69.1606 22.0866 69.1606 21.9714C69.1606 21.7409 69.2746 21.5537 69.5027 21.4097C69.6699 21.3232 69.8219 21.28 69.9587 21.28C70.1867 21.28 70.3463 21.3448 70.4375 21.4745C70.4983 21.5465 70.5287 21.6401 70.5287 21.7553C70.5287 21.9858 70.4071 22.1731 70.1639 22.3171C70.0271 22.4035 69.8751 22.4467 69.7079 22.4467ZM65.7404 30.7648C65.5884 30.7648 65.4592 30.736 65.3528 30.6784C65.2616 30.6207 65.216 30.5127 65.216 30.3543C65.216 30.1526 65.2692 29.915 65.3756 29.6413C65.4972 29.3676 65.6264 29.094 65.7632 28.8203C65.9152 28.5466 66.0292 28.3234 66.1053 28.1505C66.2117 27.9489 66.3409 27.6896 66.4929 27.3727C66.6601 27.0415 66.8121 26.7318 66.9489 26.4437C67.1009 26.1412 67.2073 25.9324 67.2681 25.8172C67.0553 26.0332 66.7969 26.3069 66.4929 26.6382C66.2041 26.955 65.9304 27.2647 65.672 27.5672C65.4136 27.8697 65.216 28.1073 65.0792 28.2802C65.0336 28.3378 64.9956 28.3666 64.9652 28.3666C64.9348 28.3666 64.9196 28.3306 64.9196 28.2586C64.9196 28.1433 64.9576 28.0353 65.0336 27.9345C65.3224 27.5888 65.6416 27.1999 65.9912 26.7678C66.3561 26.3357 66.6829 25.9396 66.9717 25.5795C67.2605 25.205 67.4429 24.9601 67.5189 24.8449C67.6861 24.8161 67.9294 24.7729 68.2486 24.7153C68.583 24.6577 68.811 24.5784 68.9326 24.4776C68.9782 24.4344 69.0238 24.4128 69.0694 24.4128C69.0998 24.4128 69.115 24.4416 69.115 24.4992C69.1302 24.5424 69.115 24.5929 69.0694 24.6505C68.9782 24.7513 68.8186 24.9961 68.5906 25.385C68.3626 25.7739 68.1194 26.206 67.861 26.6814C67.6177 27.1423 67.3897 27.56 67.1769 27.9345C66.9641 28.3234 66.7817 28.6979 66.6297 29.058C66.4777 29.418 66.4017 29.6773 66.4017 29.8357C66.4017 30.0374 66.5081 30.1382 66.7209 30.1382C66.9185 30.1382 67.1693 30.023 67.4733 29.7925C67.7926 29.5621 68.1118 29.2884 68.431 28.9715C68.7502 28.6402 69.0314 28.3378 69.2746 28.0641C69.3507 27.9777 69.4419 27.8769 69.5483 27.7616C69.6699 27.632 69.7459 27.5528 69.7763 27.524C69.8067 27.5528 69.8219 27.6032 69.8219 27.6752C69.8067 27.776 69.7687 27.8769 69.7079 27.9777C69.6471 28.0641 69.5863 28.1433 69.5255 28.2153C69.2062 28.5898 68.8566 28.9787 68.4766 29.382C68.0966 29.7709 67.6785 30.1022 67.2225 30.3759C66.7665 30.6351 66.2725 30.7648 65.7404 30.7648Z" fill="#FF6300"/>
<path d="M55.2871 30.8729C54.6639 30.8729 54.2306 30.7576 53.9874 30.5272C53.7442 30.2967 53.6226 30.0158 53.6226 29.6846C53.6226 29.2669 53.7366 28.8203 53.9646 28.345C54.2078 27.8697 54.4359 27.4664 54.6487 27.1351C54.8919 26.7894 55.2187 26.4294 55.6291 26.0549C56.0396 25.6804 56.488 25.3635 56.9744 25.1042C57.4608 24.845 57.9321 24.7153 58.3881 24.7153C58.7833 24.7153 59.0569 24.809 59.2089 24.9962C59.361 25.169 59.437 25.3779 59.437 25.6228C59.437 26.0693 59.2926 26.4366 59.0037 26.7246C58.7301 27.0127 58.3881 27.2504 57.9777 27.4376C57.5672 27.6104 57.172 27.7545 56.792 27.8697C56.564 27.9273 56.298 27.9849 55.994 28.0426C55.6899 28.1002 55.4011 28.129 55.1275 28.129C55.0211 28.3882 54.9375 28.6403 54.8767 28.8852C54.8159 29.13 54.7855 29.3533 54.7855 29.5549C54.7855 29.7998 54.8463 30.0014 54.9679 30.1599C55.1047 30.3183 55.3251 30.3975 55.6291 30.3975C55.7507 30.3975 55.8951 30.3831 56.0624 30.3543C56.2296 30.3255 56.412 30.2823 56.6096 30.2247C57.0656 30.0807 57.514 29.8502 57.9549 29.5333C58.3957 29.2164 58.7985 28.878 59.1633 28.5179C59.5434 28.1434 59.8322 27.8337 60.0298 27.5888C60.0754 27.6321 60.0982 27.6825 60.0982 27.7401C60.0982 27.8121 60.045 27.9273 59.9386 28.0858C59.6346 28.4891 59.2394 28.9068 58.7529 29.3389C58.2665 29.771 57.7269 30.1383 57.134 30.4407C56.5412 30.7288 55.9255 30.8729 55.2871 30.8729ZM55.3099 27.6969C55.5075 27.7113 55.7279 27.7113 55.9711 27.6969C56.2296 27.6681 56.4804 27.6176 56.7236 27.5456C57.3468 27.3728 57.7953 27.0991 58.0689 26.7246C58.3577 26.3357 58.5021 25.99 58.5021 25.6876C58.5021 25.5147 58.4641 25.3707 58.3881 25.2555C58.3121 25.1402 58.1905 25.0826 58.0233 25.0826C57.5824 25.0826 57.1872 25.2411 56.8376 25.5579C56.488 25.8604 56.184 26.2133 55.9255 26.6166C55.6671 27.0199 55.4619 27.38 55.3099 27.6969Z" fill="#FF6300"/>
<path d="M65.2703 38.2621C64.6927 38.2621 64.1379 38.1325 63.6058 37.8732C63.0586 37.6284 62.6558 37.2467 62.3974 36.7282C62.291 36.5409 62.2225 36.3393 62.1921 36.1232C62.1617 35.9215 62.1465 35.7199 62.1465 35.5182V35.3022C62.1465 35.187 62.1617 35.0789 62.1921 34.9781C62.2225 34.8773 62.3062 34.8269 62.443 34.8269C62.4734 34.8269 62.4886 34.8413 62.4886 34.8701C62.4886 34.9565 62.481 35.0429 62.4658 35.1294C62.4506 35.2158 62.443 35.3094 62.443 35.4102C62.443 36.0728 62.671 36.5769 63.127 36.9226C63.5678 37.2683 64.1227 37.4411 64.7915 37.4411C65.0651 37.4411 65.3463 37.4123 65.6352 37.3547C65.924 37.2971 66.19 37.2179 66.4332 37.117C67.4061 36.7281 68.2497 36.1664 68.9642 35.4318C69.6938 34.6972 70.3247 33.869 70.8567 32.9472C71.4039 32.0254 71.8827 31.082 72.2932 30.1169C72.7188 29.1375 73.114 28.2156 73.4788 27.3514C73.1596 27.8412 72.81 28.2805 72.43 28.6694C72.05 29.0438 71.6243 29.4183 71.1531 29.7928C70.8643 30.0233 70.5451 30.2393 70.1954 30.441C69.861 30.6426 69.4962 30.7435 69.101 30.7435C68.949 30.7435 68.8426 30.7003 68.7818 30.6138C68.721 30.513 68.6906 30.3978 68.6906 30.2682V30.1169C68.7666 29.5552 68.9566 28.9718 69.2606 28.3669C69.5798 27.7619 69.9598 27.193 70.4007 26.6601C70.8415 26.1271 71.2899 25.695 71.7459 25.3637C72.2628 24.9892 72.8328 24.802 73.456 24.802H76.0782C76.1542 24.802 76.1922 24.8308 76.1922 24.8884C76.1922 25.0037 76.1238 25.0613 75.987 25.0613C75.8198 25.0613 75.6602 25.1261 75.5082 25.2557C75.3562 25.3853 75.2422 25.5078 75.1662 25.623C75.0141 25.8535 74.8165 26.2063 74.5733 26.6817C74.3301 27.157 74.0641 27.7043 73.7753 28.3237C73.4864 28.9286 73.1976 29.548 72.9088 30.1817C72.62 30.8011 72.354 31.3844 72.1108 31.9318C71.7459 32.7528 71.3279 33.5522 70.8567 34.33C70.4007 35.1222 69.8534 35.8279 69.215 36.4473C68.5917 37.081 67.8469 37.578 66.9804 37.938C66.4636 38.1541 65.8936 38.2621 65.2703 38.2621ZM70.0358 30.0089C70.2182 30.0089 70.4691 29.8865 70.7883 29.6416C71.1075 29.3823 71.4571 29.0655 71.8371 28.691C72.2172 28.3021 72.5744 27.8988 72.9088 27.4811C73.2432 27.049 73.5168 26.6601 73.7297 26.3144C73.9577 25.9543 74.0717 25.6806 74.0717 25.4934C74.0717 25.3349 74.0185 25.2269 73.9121 25.1693C73.8209 25.1117 73.6993 25.0829 73.5473 25.0829C73.304 25.0829 73.0456 25.1693 72.772 25.3421C72.4984 25.5006 72.278 25.659 72.1108 25.8175C71.9283 25.9759 71.7079 26.2279 71.4495 26.5736C71.2063 26.9049 70.9555 27.2722 70.6971 27.6755C70.4539 28.0788 70.2486 28.4677 70.0814 28.8422C69.9142 29.2167 69.8306 29.5192 69.8306 29.7496C69.8306 29.9225 69.899 30.0089 70.0358 30.0089Z" fill="#FF6300"/>
<path d="M61.0336 31.0457C60.76 31.0457 60.4712 31.0097 60.1672 30.9377C59.8632 30.8656 59.5896 30.7504 59.3463 30.592C59.1183 30.4191 58.9663 30.1887 58.8903 29.9006C58.8751 29.8574 58.8675 29.7926 58.8675 29.7062C58.8675 29.5045 58.9131 29.2813 59.0043 29.0364C59.1107 28.7915 59.2399 28.6187 59.3919 28.5179C59.4527 28.4891 59.4983 28.4891 59.5287 28.5179C59.5744 28.5467 59.582 28.5755 59.5516 28.6043C59.5364 28.6475 59.5136 28.7051 59.4831 28.7771C59.4527 28.8347 59.4299 28.8996 59.4147 28.9716C59.3691 29.3461 59.4527 29.6774 59.6656 29.9654C59.7568 30.0807 59.8632 30.1887 59.9848 30.2895C60.1216 30.3903 60.2508 30.4767 60.3724 30.5488C60.4788 30.6064 60.608 30.6496 60.76 30.6784C60.912 30.6928 61.064 30.7 61.2161 30.7C61.4593 30.7 61.6949 30.6712 61.9229 30.6136C62.1509 30.556 62.3181 30.4623 62.4245 30.3327C62.6221 30.1023 62.7209 29.843 62.7209 29.5549C62.7209 29.3389 62.6601 29.1084 62.5385 28.8636C62.4169 28.6187 62.2269 28.3594 61.9685 28.0858C61.8013 27.9129 61.6417 27.7257 61.4897 27.524C61.3377 27.3224 61.2389 27.1063 61.1932 26.8759C61.178 26.8327 61.1629 26.7894 61.1477 26.7462C61.1477 26.703 61.1477 26.6598 61.1477 26.6166C60.95 26.8903 60.7448 27.1495 60.532 27.3944C60.3344 27.6248 60.1596 27.8265 60.0076 27.9993C59.9468 28.0858 59.8936 28.129 59.848 28.129C59.8176 28.129 59.8024 28.1002 59.8024 28.0425C59.8024 27.9129 59.8632 27.7761 59.9848 27.632C60.1064 27.5024 60.2432 27.344 60.3952 27.1567C60.5472 26.9551 60.6688 26.7966 60.76 26.6814C61.0184 26.3213 61.2085 26.0405 61.3301 25.8388C61.4669 25.6228 61.6113 25.4283 61.7633 25.2555C61.9305 25.0682 62.1357 24.917 62.3789 24.8018C62.6373 24.6865 62.9034 24.6289 63.177 24.6289C63.4962 24.6289 63.785 24.6793 64.0434 24.7801C64.317 24.8666 64.4615 25.097 64.4767 25.4715C64.4767 25.6444 64.4386 25.8244 64.3626 26.0116C64.3018 26.1845 64.2334 26.3501 64.1574 26.5086C64.1118 26.595 64.0434 26.6598 63.9522 26.703C63.8762 26.7318 63.8382 26.7174 63.8382 26.6598C63.8382 26.6022 63.8458 26.5374 63.861 26.4654C63.8762 26.3933 63.8838 26.3285 63.8838 26.2709C63.8838 26.026 63.8382 25.81 63.747 25.6227C63.671 25.4211 63.557 25.2771 63.405 25.1906C63.253 25.0898 63.0934 25.0394 62.9262 25.0394C62.6829 25.0394 62.4473 25.133 62.2193 25.3203C61.9913 25.4931 61.8773 25.7236 61.8773 26.0116C61.8773 26.0405 61.8773 26.0765 61.8773 26.1197C61.8773 26.1629 61.8849 26.1989 61.9001 26.2277C61.9609 26.4582 62.1433 26.7174 62.4473 27.0055C62.7513 27.2936 62.987 27.5456 63.1542 27.7617C63.443 28.1362 63.5874 28.5179 63.5874 28.9068C63.5874 29.2957 63.4658 29.6557 63.2226 29.987C62.9946 30.3039 62.6829 30.556 62.2877 30.7432C61.9077 30.9449 61.4897 31.0457 61.0336 31.0457Z" fill="#FF6300"/>
<path d="M75.5228 31.0241C75.462 31.0241 75.462 30.9593 75.5228 30.8296C75.5988 30.7 75.6672 30.556 75.728 30.3975C75.804 30.2391 75.88 30.0662 75.956 29.879C76.108 29.5333 76.2752 29.1444 76.4576 28.7123C76.6401 28.2802 76.8149 27.8625 76.9821 27.4592C77.1493 27.0415 77.2937 26.6886 77.4153 26.4005C77.5521 26.0981 77.6433 25.9036 77.6889 25.8172C77.4761 26.0332 77.2177 26.3069 76.9137 26.6382C76.6249 26.9551 76.3512 27.2647 76.0928 27.5672C75.8344 27.8697 75.6368 28.1074 75.5 28.2802C75.4544 28.3378 75.4164 28.3666 75.386 28.3666C75.3556 28.3666 75.3404 28.3306 75.3404 28.2586C75.3404 28.1434 75.3784 28.0353 75.4544 27.9345C75.7432 27.5888 76.0624 27.1999 76.412 26.7678C76.7769 26.3357 77.1037 25.9396 77.3925 25.5795C77.6813 25.205 77.8637 24.9602 77.9397 24.8449C78.1069 24.8161 78.3502 24.7729 78.6694 24.7153C79.0038 24.6577 79.2318 24.5785 79.3534 24.4777C79.399 24.4344 79.4446 24.4128 79.4902 24.4128C79.5206 24.4128 79.5358 24.4416 79.5358 24.4993C79.551 24.5425 79.5358 24.5929 79.4902 24.6505C79.399 24.7513 79.2394 24.989 79.0114 25.3635C78.7986 25.7236 78.563 26.1269 78.3046 26.5734C78.0613 27.0199 77.8333 27.4232 77.6205 27.7833C77.8029 27.5528 78.0005 27.3296 78.2134 27.1135C78.4262 26.8975 78.6314 26.6886 78.829 26.4869C79.0114 26.3141 79.2622 26.0981 79.5814 25.8388C79.9007 25.5795 80.2351 25.3419 80.5847 25.1258C80.9343 24.9098 81.2383 24.7873 81.4968 24.7585C81.5576 24.7441 81.6108 24.7369 81.6564 24.7369C81.7172 24.7369 81.7628 24.7369 81.7932 24.7369C82.1276 24.7369 82.2948 24.8521 82.2948 25.0826C82.2948 25.2554 82.196 25.4859 81.9984 25.774C81.892 25.9324 81.7248 26.1989 81.4968 26.5734C81.2839 26.9335 81.0635 27.3296 80.8355 27.7617C80.6227 28.1794 80.4327 28.5755 80.2655 28.95C80.1135 29.31 80.0375 29.5765 80.0375 29.7494C80.0375 29.951 80.1439 30.0518 80.3567 30.0518C80.6151 30.0518 80.8963 29.9294 81.2003 29.6845C81.5196 29.4397 81.8616 29.13 82.2264 28.7555C82.5912 28.3666 82.9561 27.9561 83.3209 27.524C83.3513 27.5528 83.3665 27.6032 83.3665 27.6752C83.3665 27.7761 83.3285 27.8769 83.2525 27.9777C83.1917 28.0641 83.1309 28.1434 83.0701 28.2154C82.918 28.4026 82.7128 28.6403 82.4544 28.9284C82.2112 29.202 81.9604 29.4757 81.702 29.7494C81.4436 30.0086 81.2079 30.2175 80.9951 30.3759C80.8431 30.4767 80.6455 30.5848 80.4023 30.7C80.1591 30.8152 79.9159 30.8728 79.6726 30.8728C79.399 30.8728 79.209 30.808 79.1026 30.6784C78.9962 30.5344 78.943 30.3615 78.943 30.1599C78.943 29.9294 78.9886 29.6845 79.0798 29.4253C79.171 29.166 79.2698 28.9212 79.3762 28.6907C79.4978 28.4458 79.589 28.2658 79.6498 28.1506C79.9235 27.6464 80.1743 27.1711 80.4023 26.7246C80.6303 26.2781 80.7899 25.9612 80.8811 25.774C80.9267 25.6876 80.9495 25.6155 80.9495 25.5579C80.9495 25.4571 80.8659 25.4499 80.6987 25.5363C80.5315 25.6227 80.3263 25.7524 80.0831 25.9252C79.8551 26.0981 79.6422 26.2709 79.4446 26.4437C79.247 26.6022 79.1178 26.7102 79.057 26.7678C78.4946 27.3296 78.0005 27.9561 77.5749 28.6475C77.1645 29.3245 76.8149 30.023 76.5261 30.7432C76.3284 30.7576 76.1308 30.808 75.9332 30.8944C75.7356 30.9809 75.5988 31.0241 75.5228 31.0241Z" fill="#FF6300"/>
<path d="M84.212 30.8729C83.5888 30.8729 83.1556 30.7576 82.9124 30.5272C82.6692 30.2967 82.5475 30.0158 82.5475 29.6846C82.5475 29.2669 82.6616 28.8203 82.8896 28.345C83.1328 27.8697 83.3608 27.4664 83.5736 27.1351C83.8168 26.7894 84.1436 26.4294 84.5541 26.0549C84.9645 25.6804 85.4129 25.3635 85.8994 25.1042C86.3858 24.845 86.857 24.7153 87.313 24.7153C87.7083 24.7153 87.9819 24.809 88.1339 24.9962C88.2859 25.169 88.3619 25.3779 88.3619 25.6228C88.3619 26.0693 88.2175 26.4366 87.9287 26.7246C87.6551 27.0127 87.313 27.2504 86.9026 27.4376C86.4922 27.6104 86.097 27.7545 85.7169 27.8697C85.4889 27.9273 85.2229 27.9849 84.9189 28.0426C84.6149 28.1002 84.3261 28.129 84.0524 28.129C83.946 28.3882 83.8624 28.6403 83.8016 28.8852C83.7408 29.13 83.7104 29.3533 83.7104 29.5549C83.7104 29.7998 83.7712 30.0014 83.8928 30.1599C84.0296 30.3183 84.2501 30.3975 84.5541 30.3975C84.6757 30.3975 84.8201 30.3831 84.9873 30.3543C85.1545 30.3255 85.3369 30.2823 85.5345 30.2247C85.9906 30.0807 86.439 29.8502 86.8798 29.5333C87.3206 29.2164 87.7235 28.878 88.0883 28.5179C88.4683 28.1434 88.7571 27.8337 88.9547 27.5888C89.0003 27.6321 89.0231 27.6825 89.0231 27.7401C89.0231 27.8121 88.9699 27.9273 88.8635 28.0858C88.5595 28.4891 88.1643 28.9068 87.6779 29.3389C87.1914 29.771 86.6518 30.1383 86.059 30.4407C85.4661 30.7288 84.8505 30.8729 84.212 30.8729ZM84.2349 27.6969C84.4325 27.7113 84.6529 27.7113 84.8961 27.6969C85.1545 27.6681 85.4053 27.6176 85.6485 27.5456C86.2718 27.3728 86.7202 27.0991 86.9938 26.7246C87.2826 26.3357 87.427 25.99 87.427 25.6876C87.427 25.5147 87.389 25.3707 87.313 25.2555C87.237 25.1402 87.1154 25.0826 86.9482 25.0826C86.5074 25.0826 86.1122 25.2411 85.7625 25.5579C85.4129 25.8604 85.1089 26.2133 84.8505 26.6166C84.5921 27.0199 84.3869 27.38 84.2349 27.6969Z" fill="#FF6300"/>
<path d="M88.7273 31.0025C88.6665 31.0025 88.6665 30.9449 88.7273 30.8296C88.8033 30.7 88.8717 30.556 88.9325 30.3975C89.0085 30.2391 89.0845 30.0662 89.1605 29.879C89.3125 29.5333 89.4797 29.1444 89.6621 28.7123C89.8445 28.2802 90.0194 27.8625 90.1866 27.4592C90.3538 27.0415 90.4982 26.6886 90.6198 26.4005C90.7566 26.0981 90.8478 25.9036 90.8934 25.8172C90.6806 26.0332 90.4222 26.3069 90.1182 26.6382C89.8293 26.9551 89.5557 27.2647 89.2973 27.5672C89.0389 27.8697 88.8413 28.1074 88.7045 28.2802C88.6589 28.3378 88.6209 28.3666 88.5905 28.3666C88.5601 28.3666 88.5449 28.3306 88.5449 28.2586C88.5449 28.1434 88.5829 28.0353 88.6589 27.9345C88.9477 27.5888 89.2669 27.1999 89.6165 26.7678C89.9814 26.3357 90.3082 25.9396 90.597 25.5795C90.8858 25.205 91.0682 24.9602 91.1442 24.8449C91.3114 24.8161 91.5547 24.7729 91.8739 24.7153C92.2083 24.6577 92.4363 24.5785 92.5579 24.4777C92.6035 24.4344 92.6491 24.4128 92.6947 24.4128C92.7251 24.4128 92.7403 24.4416 92.7403 24.4993C92.7555 24.5425 92.7403 24.5929 92.6947 24.6505C92.6035 24.7369 92.4667 24.9242 92.2843 25.2122C92.1171 25.5003 91.9271 25.8316 91.7143 26.2061C91.5014 26.5806 91.2962 26.9407 91.0986 27.2863C91.2506 27.0703 91.4482 26.8182 91.6915 26.5302C91.9499 26.2277 92.2311 25.9396 92.5351 25.6659C92.8391 25.3779 93.1431 25.1402 93.4472 24.953C93.7664 24.7657 94.0628 24.6721 94.3364 24.6721C94.534 24.6721 94.7012 24.7153 94.8381 24.8017C94.9749 24.8738 95.0813 25.0106 95.1573 25.2122C95.2029 25.3131 95.2257 25.4283 95.2257 25.5579C95.2257 25.8028 95.1573 26.0404 95.0205 26.2709C94.8989 26.487 94.8076 26.6526 94.7468 26.7678C94.7316 26.811 94.6784 26.8542 94.5872 26.8975C94.496 26.9263 94.458 26.9119 94.4732 26.8542C94.4884 26.7822 94.496 26.7102 94.496 26.6382C94.5112 26.5662 94.5188 26.487 94.5188 26.4005C94.5188 26.1557 94.4656 25.9324 94.3592 25.7308C94.268 25.5291 94.0932 25.4283 93.8348 25.4283C93.5916 25.4283 93.2952 25.5723 92.9455 25.8604C92.5959 26.1485 92.2463 26.4798 91.8967 26.8542C91.4558 27.344 91.1062 27.8121 90.8478 28.2586C90.5894 28.6907 90.3766 29.1156 90.2094 29.5333C90.1182 29.7638 90.027 29.9942 89.9358 30.2247C89.8445 30.4407 89.7761 30.6136 89.7305 30.7432C89.5329 30.7576 89.3353 30.8008 89.1377 30.8728C88.9401 30.9593 88.8033 31.0025 88.7273 31.0025Z" fill="#FF6300"/>
<path d="M1.48582 36.2135C1.40899 36.2135 1.27453 36.1718 1.08244 36.0884C0.890351 36.0467 0.794308 35.9633 0.794308 35.8381C0.794308 35.7964 0.813516 35.7547 0.851934 35.713C0.890351 35.6713 0.90956 35.6505 0.90956 35.6505C1.17848 35.5671 1.29373 35.5254 1.25532 35.5254C1.25532 35.5671 1.38978 35.5462 1.6587 35.4628C2.31179 35.2126 2.86885 34.8581 3.32986 34.3994C3.82928 33.8989 4.25187 33.315 4.59763 32.6478C6.40325 29.3948 8.13203 26.1002 9.78398 22.7638C11.4359 19.3858 13.0879 16.0286 14.7398 12.6922C15.0203 12.1594 15.2937 11.6189 15.5599 11.0706C15.7313 10.7177 15.8997 10.3616 16.0652 10.0023C16.4878 9.08482 16.9104 8.16732 17.333 7.24983C17.5251 6.74938 17.7172 6.24892 17.9093 5.74847C18.1398 5.24802 18.3895 4.76842 18.6584 4.30967C18.9657 3.72581 19.446 3.22536 20.099 2.80832C20.7906 2.34957 21.4437 2.01594 22.0583 1.80741H20.6753C19.907 1.80741 18.8505 1.86997 17.5059 1.99508C16.1997 2.07849 14.8167 2.24531 13.3568 2.49553C11.8969 2.74576 10.5907 3.1211 9.43822 3.62155C8.32412 4.122 7.55577 4.78927 7.13318 5.62336C6.749 6.37404 6.55692 7.10386 6.55692 7.81284C6.55692 8.64692 5.52925 9.20993 5.87501 9.50186C6.22076 9.79379 6.39364 9.98146 6.39364 10.0649C6.39364 10.1483 6.33602 10.2317 6.22076 10.3151C6.10551 10.3985 6.00947 10.4402 5.93263 10.4402C5.70213 10.4402 6.61454 10.19 6.26879 9.68953C5.92303 9.18908 5.59648 8.64692 5.28914 8.06306C5.02022 7.4375 4.84734 7.02046 4.77051 6.81193C4.65526 6.35319 4.59763 5.89444 4.59763 5.43569C4.59763 4.30967 4.94339 3.45474 5.6349 2.87088C6.36483 2.24531 7.24843 1.80741 8.2857 1.55719C9.32297 1.30696 10.3602 1.161 11.3975 1.11929C12.4732 1.03588 13.3568 0.994179 14.0483 0.994179C15.9692 0.994179 17.89 0.952475 19.8109 0.869067C21.7318 0.743953 23.6334 0.681396 25.5159 0.681396C27.3215 0.681396 29.0887 0.827361 30.8175 1.11929C32.5847 1.36952 34.179 1.89082 35.6005 2.6832C37.0219 3.47559 38.1552 4.6016 39.0004 6.06126C39.884 7.52091 40.3258 9.43931 40.3258 11.8165C40.3258 13.9851 39.9416 16.2163 39.1733 18.51C38.4434 20.762 37.5213 22.7847 36.4072 24.578C31.7203 32.2099 25.1509 36.0258 16.6991 36.0258C15.3929 36.0258 14.0483 35.8799 12.6653 35.5879C11.3207 35.296 10.0529 34.8164 8.86196 34.1491C8.59304 33.9823 8.30491 33.8572 7.99757 33.7738C7.72865 33.6487 7.44052 33.5861 7.13318 33.5861C6.48008 33.5861 5.82699 33.8155 5.17389 34.2742C4.52079 34.6913 3.88691 35.1083 3.27223 35.5254C2.65755 35.9841 2.06208 36.2135 1.48582 36.2135ZM16.0076 35.15C18.8889 35.15 21.5781 34.5453 24.0752 33.3359C26.5724 32.1265 28.7622 30.4374 30.6446 28.2688C32.5271 26.0585 34.0061 23.5354 35.0818 20.6995C35.5813 19.3649 35.9846 17.9678 36.292 16.5082C36.6377 15.0485 36.8106 13.6097 36.8106 12.1918C36.8106 8.93886 35.8886 6.43659 34.0446 4.68501C32.2389 2.89173 29.8571 1.99508 26.8989 1.99508C26.169 1.99508 25.4006 2.07849 24.5939 2.24531C23.8255 2.41213 23.1917 2.80832 22.6922 3.43388C22.1928 4.10115 21.7126 4.83098 21.2516 5.62336C20.829 6.41574 20.4064 7.18727 19.9838 7.93795C19.7776 8.32716 19.5736 8.71978 19.3716 9.11581C18.7079 10.4171 18.0668 11.7553 17.4482 13.1301C16.6799 14.8817 15.8923 16.6125 15.0856 18.3223C13.8178 20.9497 12.5692 23.5979 11.3399 26.267C11.071 26.8509 10.7828 27.4556 10.4755 28.0811C10.2066 28.665 9.93765 29.2489 9.66873 29.8327C9.59189 30.0412 9.51506 30.2706 9.43822 30.5208C9.36139 30.7294 9.32297 30.9796 9.32297 31.2715C9.32297 31.8137 9.47664 32.2724 9.78398 32.6478C10.0913 33.0231 10.4179 33.3776 10.7636 33.7112C11.4936 34.2951 12.3387 34.6913 13.2992 34.8998C14.2596 35.0666 15.1624 35.15 16.0076 35.15Z" fill="white"/>
<path d="M15.299 36.958C14.3106 36.958 13.2181 36.7408 12.0215 36.3065C10.825 35.8721 9.94058 35.0655 9.36832 33.8865V33.7004C9.36832 33.3901 9.70647 32.9247 10.3828 32.3042C11.0071 31.6217 11.6834 30.9702 12.4117 30.3497C13.14 29.6671 13.6082 29.1707 13.8163 28.8605L17.1472 24.7177L14.5186 29.0466C14.1545 29.4189 13.9724 29.8223 13.9724 30.2566C13.9724 31.1874 14.2585 31.963 14.8308 32.5835C15.4551 33.204 16.1574 33.6693 16.9377 33.9796C17.7701 34.2898 18.4985 34.445 19.1227 34.445C19.8511 34.445 20.7615 34.1968 21.854 33.7004C22.9985 33.204 24.0129 32.5214 24.8973 31.6527C25.7817 30.784 26.2239 29.8223 26.2239 28.7674C26.2239 27.1541 25.8078 25.758 24.9754 24.579C24.143 23.4001 23.1806 22.2832 22.0881 21.2283C20.9956 20.1735 20.0331 19.0566 19.2008 17.8777C18.3684 16.6987 17.9522 15.3336 17.9522 13.7824C17.9522 11.9829 18.3944 10.3696 19.2788 8.94247C20.2152 7.45327 21.3858 6.21227 22.7904 5.21948C24.2471 4.16463 25.7557 3.389 27.3164 2.89261C28.8771 2.33416 30.3078 2.05493 31.6084 2.05493C31.8165 2.05493 32.2847 2.11698 33.013 2.24108C33.7414 2.30313 34.4177 2.45826 35.0419 2.70646C35.742 3.15649 36.2112 3.54635 36.2112 3.91865C36.2112 4.04275 35.8678 3.90279 35.6321 3.66857L35.4321 3.60777L35.198 3.54413C35.3541 3.97848 35.4321 4.5059 35.4321 5.1264C35.4321 5.68485 35.3281 6.39842 35.12 7.26712C34.9119 8.13582 34.6778 8.81837 34.4177 9.31477C34.3656 9.43887 34.1055 9.84219 33.6373 10.5247C33.1691 11.2073 32.7009 11.8588 32.2327 12.4793C31.7645 13.0998 31.4783 13.4101 31.3743 13.4101L31.2962 13.2239C31.4003 12.9137 31.7384 12.3862 32.3107 11.6416C32.883 10.835 33.1691 9.81117 33.1691 8.57017C33.1691 7.26712 32.6749 6.21227 31.6864 5.40562C30.698 4.53693 29.6835 4.10258 28.643 4.10258C27.6546 4.10258 26.6141 4.47488 25.5216 5.21948C24.4812 5.96407 23.5968 6.92585 22.8684 8.10479C22.1921 9.28374 21.854 10.4937 21.854 11.7347C21.854 12.8516 22.2962 14.0306 23.1806 15.2716C24.117 16.4505 25.1575 17.6605 26.302 18.9015C27.4985 20.0804 28.539 21.2594 29.4234 22.4383C30.3598 23.6173 30.828 24.7342 30.828 25.789V26.0682C30.828 27.6195 30.2558 29.0777 29.1113 30.4428C27.9667 31.7458 26.5361 32.8937 24.8193 33.8865C23.1025 34.8793 21.3597 35.6549 19.5909 36.2134C17.8742 36.7098 16.4435 36.958 15.299 36.958Z" fill="#FF6300"/>
</svg>
